<svg id="visual" viewBox="0 0 900 600" width="900" height="600" xmlns="http://www.w3.org/2000/svg" xmlns:xlink="http://www.w3.org/1999/xlink" version="1.1"><rect x="0" y="0" width="900" height="600" fill="#140021"></rect><path d="M0 175L129 175L129 273L257 273L257 157L386 157L386 122L514 122L514 142L643 142L643 238L771 238L771 106L900 106L900 162L900 601L900 601L771 601L771 601L643 601L643 601L514 601L514 601L386 601L386 601L257 601L257 601L129 601L129 601L0 601Z" fill="#9900ff"></path><path d="M0 320L129 320L129 303L257 303L257 266L386 266L386 347L514 347L514 330L643 330L643 354L771 354L771 396L900 396L900 383L900 601L900 601L771 601L771 601L643 601L643 601L514 601L514 601L386 601L386 601L257 601L257 601L129 601L129 601L0 601Z" fill="#7700c6"></path><path d="M0 396L129 396L129 462L257 462L257 501L386 501L386 400L514 400L514 482L643 482L643 383L771 383L771 520L900 520L900 410L900 601L900 601L771 601L771 601L643 601L643 601L514 601L514 601L386 601L386 601L257 601L257 601L129 601L129 601L0 601Z" fill="#560090"></path></svg>